<svg width="21" height="21" viewBox="0 0 21 21" fill="none" xmlns="http://www.w3.org/2000/svg" class=""><path d="M10.5 0.144531C10.7574 0.144531 11.013 0.241365 11.208 0.434429L19.8076 8.96346L19.876 9.03862C20.1742 9.40108 20.1743 9.92292 19.876 10.2851L19.8076 10.3602C19.4413 10.7233 18.8602 10.7464 18.4668 10.4286L18.3906 10.3602L11.4736 3.49836V19.144C11.4714 19.6601 11.0761 20.0866 10.5733 20.1396L10.4707 20.1445C9.9226 20.1467 9.48119 19.7059 9.48341 19.1577L9.52736 3.49836L2.60939 10.3602C2.24268 10.7235 1.66169 10.7455 1.26857 10.4276L1.1924 10.3593C0.803122 9.97344 0.802989 9.34959 1.1924 8.96346L9.79201 0.434429L9.8672 0.367079C10.0242 0.240015 10.2111 0.166705 10.4033 0.148436L10.5 0.144531Z" fill="currentColor"></path></svg>
