<svg width="20" height="20" viewBox="0 0 20 20" fill="none" xmlns="http://www.w3.org/2000/svg" class=""><g clip-path="url(#clip0_13649_17082)"><path d="M8.39912 0.507722C9.42552 -0.217658 10.8284 -0.165571 11.8012 0.663178L13.0479 1.72546L13.1924 1.83109C13.3449 1.92442 13.518 1.98017 13.6976 1.99451L15.3289 2.12506L15.581 2.15595C16.8194 2.36887 17.7743 3.39698 17.876 4.67113L18.0056 6.30342L18.0345 6.4798C18.0765 6.65331 18.1582 6.81636 18.2756 6.95414L19.3369 8.19977L19.4924 8.39907C20.2178 9.42524 20.1655 10.8263 19.3369 11.7992L19.3379 11.8002L18.2766 13.0468H18.2756C18.1586 13.1842 18.0764 13.3467 18.0345 13.5201L18.0066 13.6975L17.876 15.3288C17.7744 16.6023 16.8203 17.6311 15.581 17.844L15.3299 17.8759L13.6976 18.0064C13.5176 18.0208 13.3447 18.0768 13.1924 18.1698L13.0469 18.2755L11.8012 19.3368C10.8284 20.1657 9.42571 20.2179 8.39912 19.4922L8.19982 19.3368L6.95417 18.2755C6.81671 18.1583 6.65375 18.0762 6.47982 18.0343L6.30344 18.0054L4.67114 17.8759C3.31179 17.7674 2.23365 16.6879 2.12503 15.3298L1.99448 13.6975C1.98016 13.518 1.9236 13.3451 1.83006 13.1923L1.72443 13.0468L0.66413 11.8002L0.663133 11.8012C-0.220917 10.7638 -0.221171 9.23754 0.663133 8.19977L1.72542 6.95314L1.83006 6.80865C1.92271 6.65678 1.97901 6.48411 1.99349 6.30342V6.30242L2.12403 4.67113L2.15592 4.42001C2.36896 3.18078 3.39872 2.22673 4.67213 2.12506L6.30244 1.99451L6.47982 1.96661C6.65361 1.92473 6.81591 1.84236 6.95317 1.72546L8.19982 0.663178L8.39912 0.507722ZM10.7429 1.90582C10.3423 1.56437 9.76368 1.54326 9.34083 1.84205L9.25812 1.90582L8.01247 2.9681C7.62333 3.2997 7.1512 3.51581 6.64923 3.5959L6.43299 3.62181L4.80168 3.75235C4.24164 3.79725 3.79717 4.242 3.75235 4.80068V4.80168L3.6218 6.43296C3.58123 6.94139 3.40225 7.42862 3.10361 7.84103L2.96808 8.01243L1.90579 9.25906C1.54203 9.68618 1.54169 10.3144 1.90579 10.7419H1.90679L2.96709 11.9875L3.10262 12.1599C3.40052 12.5709 3.58201 13.0572 3.6228 13.567L3.75334 15.1992L3.7663 15.3029C3.85394 15.8135 4.27648 16.2067 4.80069 16.2486L6.43299 16.3781L6.65023 16.404C7.15209 16.4842 7.62349 16.7014 8.01247 17.0328L9.25812 18.0941L9.34083 18.1589C9.76361 18.4574 10.3423 18.4355 10.7429 18.0941L11.9886 17.0328L12.16 16.8973C12.5718 16.599 13.0589 16.4187 13.5681 16.3781L15.2004 16.2486L15.304 16.2356C15.8134 16.1479 16.2058 15.7244 16.2477 15.1992L16.3783 13.567C16.4249 12.9844 16.6546 12.4316 17.033 11.9875L18.0943 10.7419L18.159 10.6592C18.4376 10.2647 18.4377 9.73529 18.159 9.34077L18.0943 9.25806L17.033 8.01243C16.7021 7.62402 16.4846 7.1525 16.4042 6.6502L16.3783 6.43296L16.2487 4.80068C16.2067 4.27629 15.8134 3.85298 15.303 3.76531L15.1994 3.75235L13.5681 3.62281C13.0582 3.58212 12.5714 3.40087 12.16 3.10263L11.9886 2.9681L10.7429 1.90582ZM10.0514 12.705C10.5022 12.705 10.8675 13.0703 10.8675 13.5211V13.6228C10.8675 13.8398 10.7811 14.0486 10.6273 14.2017C10.4928 14.3356 10.3164 14.418 10.1291 14.4359L10.0484 14.4389H9.94672C9.49718 14.4371 9.13366 14.0723 9.13356 13.6228V13.5211C9.13356 13.0703 9.49885 12.705 9.94971 12.705H10.0514ZM9.18438 10.4599V6.37815C9.18438 5.9273 9.54967 5.56201 10.0005 5.56201C10.4514 5.56204 10.8167 5.92732 10.8167 6.37815V10.4599C10.8166 10.9106 10.4513 11.276 10.0005 11.276C9.54974 11.276 9.18448 10.9106 9.18438 10.4599Z" fill="currentColor"></path></g><defs><clipPath id="clip0_13649_17082"><rect width="20" height="20" fill="white"></rect></clipPath></defs></svg>
