<svg width="20" height="21" viewBox="0 0 20 21" fill="none" xmlns="http://www.w3.org/2000/svg" class=""><path fill-rule="evenodd" clip-rule="evenodd" d="M6.05201 0.669922C5.61616 0.669922 5.23444 0.835141 4.91303 1.15656C4.59161 1.47797 4.42639 1.85969 4.42639 2.29554V16.0886C4.42639 16.5245 4.59161 16.9062 4.91303 17.2276C5.23444 17.549 5.61616 17.7143 6.05201 17.7143H16.8894C17.3253 17.7143 17.707 17.549 18.0284 17.2276C18.3498 16.9062 18.5151 16.5245 18.5151 16.0886V2.29554C18.5151 1.85969 18.3498 1.47797 18.0284 1.15656C17.707 0.835141 17.3253 0.669922 16.8894 0.669922H6.05201ZM6.40422 2.14775C6.12808 2.14775 5.90422 2.37161 5.90422 2.64775V15.7364C5.90422 16.0126 6.12808 16.2364 6.40422 16.2364H16.5372C16.8134 16.2364 17.0372 16.0126 17.0372 15.7364V2.64775C17.0372 2.37161 16.8134 2.14775 16.5372 2.14775H6.40422Z" fill="currentColor"></path><path d="M1.48499 5.03061V16.77C1.48499 18.9239 3.23107 20.67 5.38499 20.67H13.9072C14.4043 20.67 14.8072 20.2671 14.8072 19.77C14.8072 19.273 14.4043 18.87 13.9072 18.87H5.38499C4.22519 18.87 3.28499 17.9298 3.28499 16.77V5.03061C3.28499 4.53356 2.88204 4.13062 2.38499 4.13062C1.88793 4.13062 1.48499 4.53356 1.48499 5.03061Z" fill="currentColor"></path></svg>
