<svg width="20" height="21" viewBox="0 0 20 21" fill="none" xmlns="http://www.w3.org/2000/svg"><g clip-path="url(#clip0_5587_165862)"><path fill-rule="evenodd" clip-rule="evenodd" d="M13.9709 3.26858C15.0318 3.38302 16.1357 3.17165 17.384 2.19557C17.6853 1.96002 18.0945 1.91689 18.4382 2.08445C18.7819 2.25202 19 2.60093 19 2.98333V14.3568C19 14.6644 18.8584 14.955 18.616 15.1445C16.9552 16.4431 15.3318 16.8004 13.7564 16.6305C12.2804 16.4714 10.8849 15.8477 9.65934 15.2999C9.63686 15.2899 9.61444 15.2799 9.59207 15.2699C8.2883 14.6873 7.16241 14.1938 6.02915 14.0716C5.07827 13.9691 4.09291 14.1283 3 14.8651V19.6699C3 20.2221 2.55228 20.6699 2 20.6699C1.44772 20.6699 1 20.2221 1 19.6699V2.98313C1 2.67544 1.14164 2.38488 1.38403 2.19536C3.0448 0.89676 4.6682 0.539482 6.24361 0.709415C7.71964 0.868629 9.11511 1.49237 10.3407 2.04017C10.3632 2.05021 10.3856 2.06024 10.408 2.07023C11.7117 2.6528 12.8376 3.14634 13.9709 3.26858ZM3 12.5831C4.10078 12.0933 5.18306 11.9688 6.24358 12.0832C7.7196 12.2423 9.11508 12.866 10.3407 13.4138C10.3631 13.4238 10.3856 13.4338 10.4079 13.4438C11.7117 14.0264 12.8376 14.5198 13.9709 14.6421C14.9217 14.7446 15.9071 14.5854 17 13.8486V4.75715C15.8992 5.24692 14.8169 5.37144 13.7564 5.25704C12.2804 5.09783 10.8849 4.47409 9.65931 3.92629C9.63683 3.91624 9.6144 3.90622 9.59204 3.89623C8.28827 3.31366 7.16238 2.82012 6.02912 2.69788C5.07825 2.59531 4.0929 2.75445 3 3.49126V12.5831Z" fill="currentColor"></path></g><defs><clipPath id="clip0_5587_165862"><rect width="20" height="20" fill="white" transform="translate(0 0.669922)"></rect></clipPath></defs></svg>
