<svg width="20" height="21" viewBox="0 0 20 21" fill="none" xmlns="http://www.w3.org/2000/svg"><path fill-rule="evenodd" clip-rule="evenodd" d="M5.91837 4.30258C4.67854 4.30258 3.67347 5.30765 3.67347 6.54747C3.67347 7.21226 3.9614 7.80872 4.42197 8.22094C4.75791 8.52162 4.7865 9.03769 4.48583 9.37363C4.18515 9.70957 3.66907 9.73816 3.33313 9.43749C2.54115 8.72865 2.04082 7.69595 2.04082 6.54747C2.04082 4.40596 3.77686 2.66992 5.91837 2.66992C6.91096 2.66992 7.81813 3.04395 8.5036 3.65746C8.83954 3.95813 8.86813 4.47421 8.56746 4.81015C8.26678 5.14609 7.75071 5.17468 7.41476 4.87401C7.01706 4.51805 6.49385 4.30258 5.91837 4.30258ZM11.4964 3.65746C12.1819 3.04395 13.089 2.66992 14.0816 2.66992C16.2231 2.66992 17.9592 4.40596 17.9592 6.54747C17.9592 7.69595 17.4588 8.72865 16.6669 9.43749C16.3309 9.73816 15.8149 9.70957 15.5142 9.37363C15.2135 9.03769 15.2421 8.52162 15.578 8.22094C16.0386 7.80872 16.3265 7.21226 16.3265 6.54747C16.3265 5.30765 15.3215 4.30258 14.0816 4.30258C13.5062 4.30258 12.9829 4.51805 12.5852 4.874C12.2493 5.17468 11.7332 5.14609 11.4325 4.81015C11.1319 4.47421 11.1605 3.95813 11.4964 3.65746ZM10 7.3638C8.76018 7.3638 7.7551 8.36888 7.7551 9.6087C7.7551 10.8485 8.76018 11.8536 10 11.8536C11.2398 11.8536 12.2449 10.8485 12.2449 9.6087C12.2449 8.36888 11.2398 7.3638 10 7.3638ZM6.12245 9.6087C6.12245 7.46719 7.85849 5.73115 10 5.73115C12.1415 5.73115 13.8776 7.46719 13.8776 9.6087C13.8776 11.7502 12.1415 13.4862 10 13.4862C7.85849 13.4862 6.12245 11.7502 6.12245 9.6087ZM4.6672 12.718C4.78152 13.1541 4.52067 13.6003 4.08456 13.7147C3.27785 13.9261 2.63866 14.2625 2.21706 14.6417C1.79768 15.0188 1.63265 15.3966 1.63265 15.7315C1.63265 16.1824 1.26717 16.5479 0.816327 16.5479C0.365482 16.5479 0 16.1824 0 15.7315C0 14.8111 0.464611 14.0219 1.12536 13.4277C1.78389 12.8355 2.67531 12.3963 3.67055 12.1354C4.10665 12.0211 4.55287 12.2819 4.6672 12.718ZM15.3328 12.718C15.4471 12.2819 15.8933 12.0211 16.3295 12.1354C17.3247 12.3963 18.2161 12.8355 18.8746 13.4277C19.5354 14.0219 20 14.8111 20 15.7315C20 16.1824 19.6345 16.5479 19.1837 16.5479C18.7328 16.5479 18.3673 16.1824 18.3673 15.7315C18.3673 15.3966 18.2023 15.0188 17.7829 14.6417C17.3613 14.2625 16.7221 13.9261 15.9154 13.7147C15.4793 13.6003 15.2185 13.1541 15.3328 12.718ZM5.97232 15.9278C7.04265 15.2856 8.4686 14.9148 10 14.9148C11.5314 14.9148 12.9574 15.2856 14.0277 15.9278C15.0818 16.5602 15.9184 17.5476 15.9184 18.7924C15.9184 19.2432 15.5529 19.6087 15.102 19.6087C14.6512 19.6087 14.2857 19.2432 14.2857 18.7924C14.2857 18.3464 13.9802 17.8033 13.1877 17.3278C12.4114 16.862 11.2864 16.5475 10 16.5475C8.71363 16.5475 7.58856 16.862 6.81231 17.3278C6.01981 17.8033 5.71429 18.3464 5.71429 18.7924C5.71429 19.2432 5.3488 19.6087 4.89796 19.6087C4.44712 19.6087 4.08163 19.2432 4.08163 18.7924C4.08163 17.5476 4.91824 16.5602 5.97232 15.9278Z" fill="currentColor"></path></svg>
