<svg width="18" height="18" viewBox="0 0 18 18" fill="none" xmlns="http://www.w3.org/2000/svg" class=""><path fill-rule="evenodd" clip-rule="evenodd" d="M11.058 0.396496C11.2956 0.400867 11.5223 0.501327 11.6844 0.674214L17.5111 6.50426C17.6928 6.66967 17.7986 6.90569 17.7989 7.15329C17.7989 7.39879 17.6936 7.63208 17.5141 7.79824L17.5152 7.79926C17.1935 8.11992 16.6858 8.14025 16.3417 7.85928L16.2756 7.79926L16.1627 7.68736L12.8304 11.021C13.1283 11.8521 13.2199 12.7413 13.0948 13.612L13.0256 13.9935C12.806 15.0056 12.3004 15.9326 11.5684 16.6649L11.5644 16.6689L10.9492 17.2213L10.9502 17.2224C10.2025 17.9652 8.99613 17.9651 8.24833 17.2224L5.22922 14.202L1.69702 17.7376C1.37626 18.0583 0.869298 18.0781 0.524559 17.7976L0.457445 17.7376C0.115947 17.3945 0.115547 16.8397 0.457446 16.4975L3.98964 12.9528L0.971547 9.93352C0.23023 9.18827 0.229928 7.98393 0.971547 7.23976L1.57862 6.62125L1.86335 6.35675C2.54548 5.76668 3.36606 5.35582 4.25098 5.16348L4.63231 5.09431C5.50167 4.96921 6.39059 5.06125 7.22027 5.3588L10.5536 2.02415L10.4428 1.91225C10.2708 1.75023 10.1705 1.52494 10.1662 1.28865C10.162 1.05067 10.2552 0.821266 10.4224 0.652851L10.4885 0.593849C10.6483 0.463846 10.8497 0.392857 11.058 0.396496ZM8.04394 7.01595C7.77476 7.28083 7.36725 7.34709 7.02808 7.17974C6.3445 6.8379 5.56836 6.71884 4.81332 6.84098C4.05835 6.96323 3.36009 7.32022 2.81922 7.86132L2.21214 8.47982L2.20909 8.48288C2.18087 8.50897 2.16455 8.54672 2.16435 8.58562C2.16435 8.60566 2.168 8.62597 2.17553 8.64361L2.20909 8.6904L2.21214 8.69345L5.85969 12.3933L9.50723 15.9813L9.50825 15.9823L9.57943 16.0393C9.5973 16.0492 9.61006 16.0514 9.61807 16.0515C9.63249 16.0515 9.6631 16.0436 9.71772 15.9843L9.72179 15.9813L10.3401 15.3729C10.8806 14.8319 11.2369 14.1342 11.359 13.3791L11.3935 13.0942C11.4485 12.4308 11.3201 11.7627 11.0203 11.1644C10.846 10.8263 10.9135 10.4124 11.1861 10.1461L14.9231 6.39541L11.7932 3.26422L8.04394 7.01595Z" fill="currentColor"></path></svg>
