<svg width="20" height="21" viewBox="0 0 20 21" fill="none" xmlns="http://www.w3.org/2000/svg"><g clip-path="url(#clip0_8167_17272)"><path fill-rule="evenodd" clip-rule="evenodd" d="M17.1426 0.669922C17.5935 0.669922 17.959 1.0354 17.959 1.48625V6.58829C17.959 7.03913 17.5935 7.40462 17.1426 7.40462H12.0406C11.5897 7.40462 11.2243 7.03913 11.2243 6.58829C11.2243 6.13745 11.5897 5.77196 12.0406 5.77196H15.4759C14.8976 5.12508 14.2068 4.5829 13.4328 4.17395C12.2174 3.5318 10.8472 3.24355 9.47625 3.34182C8.10514 3.4401 6.78791 3.9213 5.67665 4.73016C4.56533 5.53907 3.70321 6.64351 3.1883 7.91797C3.01941 8.33599 2.54363 8.53795 2.12561 8.36906C1.70759 8.20017 1.50564 7.72439 1.67453 7.30637C2.30387 5.7487 3.35756 4.39882 4.71585 3.41015C6.07421 2.42143 7.6839 1.83346 9.35952 1.71335C11.0353 1.59323 12.7102 1.94561 14.1955 2.73041C14.9833 3.14664 15.7004 3.67568 16.3263 4.2973V1.48625C16.3263 1.0354 16.6918 0.669922 17.1426 0.669922ZM17.8745 12.9713C18.2925 13.1402 18.4945 13.6159 18.3256 14.034C17.6962 15.5916 16.6426 16.9415 15.2843 17.9302C13.9259 18.9189 12.3177 19.5062 10.6421 19.6263C8.96643 19.7464 7.2903 19.3941 5.80484 18.6093C5.01695 18.193 4.29946 17.6639 3.67324 17.0421V19.8536C3.67324 20.3044 3.30776 20.6699 2.85691 20.6699C2.40607 20.6699 2.04059 20.3044 2.04059 19.8536V14.7516C2.04059 14.3007 2.40607 13.9352 2.85691 13.9352H7.95895C8.4098 13.9352 8.77528 14.3007 8.77528 14.7516C8.77528 15.2024 8.4098 15.5679 7.95895 15.5679H4.52396C5.1024 16.2146 5.79347 16.7568 6.56755 17.1657C7.78284 17.8078 9.15426 18.0961 10.5254 17.9978C11.8965 17.8995 13.2122 17.419 14.3235 16.6102C15.4348 15.8013 16.2969 14.6968 16.8118 13.4224C16.9807 13.0043 17.4565 12.8024 17.8745 12.9713Z" fill="currentColor"></path></g><defs><clipPath id="clip0_8167_17272"><rect width="20" height="20" fill="white" transform="translate(0 0.669922)"></rect></clipPath></defs></svg>
