<svg width="12" height="12" viewBox="0 0 12 12" fill="none" xmlns="http://www.w3.org/2000/svg"><g clip-path="url(#clip0_15027_4314)"><path fill-rule="evenodd" clip-rule="evenodd" d="M2.70552 3.22901e-07H9.29479C9.65797 -7.805e-06 9.96304 -1.46973e-05 10.2127 0.0203927C10.4737 0.0417355 10.7217 0.0880867 10.9572 0.208079C11.3158 0.390809 11.6087 0.682423 11.7921 1.04223C11.912 1.27766 11.9583 1.52571 11.9796 1.78654C12 2.03602 12 2.3408 12 2.70328V9.29706C12 9.65952 12 9.96418 11.9796 10.2135C11.9583 10.4743 11.912 10.7222 11.7921 10.9576C11.6089 11.3171 11.3162 11.6092 10.9572 11.7921C10.7219 11.912 10.474 11.9583 10.2132 11.9796C9.96385 12 9.65919 12 9.29672 12H2.70328C2.3408 12 2.03602 12 1.78654 11.9796C1.52571 11.9583 1.27766 11.912 1.04223 11.7921C0.682704 11.6089 0.390953 11.3165 0.208079 10.9576C0.0880675 10.722 0.041729 10.4739 0.0203914 10.2128C-1.46973e-05 9.96312 -7.80499e-06 9.65797 3.22912e-07 9.29477V2.70552C-7.80499e-06 2.3423 -1.46323e-05 2.03704 0.0203895 1.78723C0.0417194 1.52608 0.0880396 1.27782 0.208079 1.04223C0.39111 0.683012 0.683012 0.39111 1.04223 0.208079C1.27782 0.0880396 1.52608 0.0417194 1.78723 0.0203895C2.03704 -1.46323e-05 2.3423 -7.805e-06 2.70552 3.22901e-07ZM1.87603 1.10768C1.68226 1.1235 1.5936 1.1515 1.53749 1.18009C1.38354 1.25853 1.25853 1.38354 1.18009 1.53749C1.1515 1.5936 1.1235 1.68226 1.10768 1.87603C1.09133 2.07614 1.09091 2.33656 1.09091 2.72741V9.27286C1.09091 9.66372 1.09133 9.924 1.10768 10.124C1.1235 10.3175 1.15147 10.4061 1.18009 10.4623C1.25869 10.6165 1.38385 10.7418 1.53749 10.8201C1.59348 10.8486 1.68197 10.8765 1.87539 10.8923C2.07514 10.9087 2.33506 10.9091 2.72517 10.9091H2.72727V1.09091C2.3365 1.09091 2.07612 1.09134 1.87603 1.10768ZM3.81818 1.09091V10.9091H9.27483C9.66495 10.9091 9.92471 10.9087 10.1243 10.8923C10.3175 10.8765 10.4059 10.8486 10.462 10.8201C10.6162 10.7415 10.7418 10.616 10.8201 10.4623C10.8486 10.4062 10.8765 10.3178 10.8923 10.1246C10.9087 9.92504 10.9091 9.66528 10.9091 9.27517V2.72517C10.9091 2.33506 10.9087 2.07514 10.8923 1.87539C10.8765 1.68197 10.8486 1.59348 10.8201 1.53749C10.7419 1.38413 10.6165 1.25883 10.462 1.18009C10.4058 1.15145 10.3172 1.12349 10.1238 1.10767C9.92391 1.09133 9.66372 1.09091 9.27286 1.09091H3.81818ZM5.45455 3.27273C5.45455 2.97148 5.69875 2.72727 6 2.72727H8.72727C9.02852 2.72727 9.27273 2.97148 9.27273 3.27273C9.27273 3.57397 9.02852 3.81818 8.72727 3.81818H6C5.69875 3.81818 5.45455 3.57397 5.45455 3.27273ZM5.45455 5.31818C5.45455 5.01694 5.69875 4.77273 6 4.77273H8.72727C9.02852 4.77273 9.27273 5.01694 9.27273 5.31818C9.27273 5.61943 9.02852 5.86364 8.72727 5.86364H6C5.69875 5.86364 5.45455 5.61943 5.45455 5.31818Z" fill="currentColor"></path></g><defs><clipPath id="clip0_15027_4314"><rect width="12" height="12" fill="white"></rect></clipPath></defs></svg>
