<svg width="20" height="21" viewBox="0 0 20 21" fill="none" xmlns="http://www.w3.org/2000/svg"><g clip-path="url(#clip0_8237_71828)"><path d="M5.77607 8.45264C5.4424 8.11898 4.90142 8.11898 4.56776 8.45264C4.23409 8.78631 4.23409 9.32729 4.56776 9.66096L6.92019 12.0134L4.56776 14.3658C4.23409 14.6995 4.23409 15.2405 4.56776 15.5741C4.90142 15.9078 5.4424 15.9078 5.77607 15.5741L8.73266 12.6175C9.06633 12.2839 9.06633 11.7429 8.73266 11.4092L5.77607 8.45264Z" fill="currentColor"></path><path fill-rule="evenodd" clip-rule="evenodd" d="M4.04908 1.89258H15.9514C16.4949 1.89256 16.9515 1.89256 17.3251 1.92332C17.7158 1.9555 18.0869 2.02538 18.4394 2.20626C18.9761 2.48174 19.4144 2.92135 19.6888 3.46377C19.8593 3.80075 19.9309 4.15668 19.9648 4.53117C19.9877 4.60693 20 4.6873 20 4.77058C20 4.81824 19.996 4.86497 19.9882 4.91042C20 5.21739 20 5.57268 20 5.9772V15.9094C20 16.455 20 16.9137 19.9695 17.2892C19.9376 17.6823 19.8683 18.056 19.6888 18.4108C19.4149 18.9523 18.977 19.3934 18.4394 19.6694C18.0871 19.8502 17.7162 19.92 17.3259 19.9521C16.9527 19.9829 16.4967 19.9829 15.9543 19.9828L4.04542 19.9828C3.50308 19.9829 3.04705 19.9829 2.67375 19.9521C2.28339 19.92 1.91215 19.8502 1.55981 19.6694C1.02131 19.393 0.584882 18.9515 0.311407 18.4108C0.131836 18.0558 0.0624706 17.682 0.0305206 17.2884C-1.2571e-05 16.9121 -1.25711e-05 16.4522 5.26117e-07 15.9047V5.98045C5.26117e-07 5.57466 5.26197e-07 5.21845 0.0118208 4.91073C0.00405125 4.86518 5.26117e-07 4.81836 5.26117e-07 4.77058C5.26117e-07 4.6871 0.0123502 4.60653 0.0353162 4.53061C0.0693215 4.15624 0.141053 3.80054 0.311407 3.46376C0.585333 2.92224 1.0222 2.48219 1.55981 2.20626C1.9124 2.0253 2.28393 1.95547 2.67476 1.92332C3.04849 1.89257 3.50573 1.89257 4.04908 1.89258ZM1.63314 5.59286C1.63268 5.71873 1.63266 5.85526 1.63266 6.00421V15.8716C1.63266 16.4609 1.63328 16.8531 1.65775 17.1544C1.68141 17.446 1.72326 17.5795 1.76611 17.6642C1.88396 17.8972 2.07149 18.0863 2.30101 18.2041C2.38481 18.2471 2.51725 18.2892 2.80672 18.313C3.10568 18.3376 3.49467 18.3383 4.07852 18.3383H15.9215C16.5054 18.3383 16.8941 18.3376 17.1929 18.313C17.482 18.2892 17.6143 18.2471 17.6982 18.2041C17.9286 18.0858 18.1167 17.8963 18.2341 17.6642C18.2768 17.5797 18.3186 17.4464 18.3423 17.1552C18.3667 16.8543 18.3673 16.4627 18.3673 15.8746V6.00083C18.3673 5.85319 18.3673 5.71777 18.3669 5.59286H1.63314Z" fill="currentColor"></path></g><defs><clipPath id="clip0_8237_71828"><rect width="20" height="20" fill="white" transform="translate(0 0.669922)"></rect></clipPath></defs></svg>
