<svg width="20" height="21" viewBox="0 0 20 21" fill="none" xmlns="http://www.w3.org/2000/svg"><path fill-rule="evenodd" clip-rule="evenodd" d="M16.5051 1.96137C16.8228 1.64374 17.3377 1.64374 17.6554 1.96137C18.3985 2.70446 18.9879 3.58663 19.3901 4.55752C19.792 5.52798 20 6.56839 20 7.61975C20 8.67084 19.7925 9.71164 19.3905 10.6823C18.9882 11.6534 18.3983 12.5356 17.6554 13.2786C17.3377 13.5962 16.8228 13.5962 16.5051 13.2786C16.1875 12.9609 16.1875 12.446 16.5051 12.1283C17.0973 11.5362 17.5672 10.8332 17.8876 10.0598C18.2081 9.28612 18.3733 8.45681 18.3733 7.61975C18.3733 6.78296 18.2078 5.954 17.8872 5.18003C17.5668 4.4065 17.0972 3.70365 16.5051 3.11161C16.1875 2.79398 16.1875 2.279 16.5051 1.96137ZM6.91343 4.36652C5.11664 4.36652 3.66005 5.8231 3.66005 7.6199C3.66005 9.41669 5.11664 10.8733 6.91343 10.8733C8.71023 10.8733 10.1668 9.41669 10.1668 7.6199C10.1668 5.8231 8.71023 4.36652 6.91343 4.36652ZM2.03336 7.6199C2.03336 4.92471 4.21825 2.73983 6.91343 2.73983C9.60862 2.73983 11.7935 4.92471 11.7935 7.6199C11.7935 10.3151 9.60862 12.5 6.91343 12.5C4.21825 12.5 2.03336 10.3151 2.03336 7.6199ZM14.297 4.16947C14.6147 3.85184 15.1296 3.85184 15.4473 4.16947C15.9004 4.62263 16.2599 5.1606 16.5051 5.75268C16.7503 6.34464 16.8768 6.97953 16.8768 7.62053C16.8768 8.26171 16.7504 8.89517 16.5052 9.48695C16.2601 10.0788 15.9006 10.6174 15.4473 11.0707C15.1296 11.3883 14.6147 11.3883 14.297 11.0707C13.9794 10.7531 13.9794 10.2381 14.297 9.92044C14.599 9.61849 14.8388 9.25936 15.0024 8.86444C15.166 8.46943 15.2501 8.04744 15.2501 7.62053C15.2501 7.19342 15.1658 6.77003 15.0023 6.37519C14.8388 5.98047 14.5991 5.62182 14.297 5.31972C13.9794 5.00209 13.9794 4.48711 14.297 4.16947ZM2.14886 15.251C3.40385 14.4144 5.09076 13.9233 6.91343 13.9233C8.73611 13.9233 10.423 14.4144 11.678 15.251C12.9273 16.0839 13.8269 17.3238 13.8269 18.8034C13.8269 19.2526 13.4627 19.6167 13.0135 19.6167C12.5643 19.6167 12.2002 19.2526 12.2002 18.8034C12.2002 18.037 11.7342 17.2435 10.7757 16.6045C9.82288 15.9693 8.45975 15.55 6.91343 15.55C5.36712 15.55 4.00398 15.9693 3.05118 16.6045C2.0927 17.2435 1.62669 18.037 1.62669 18.8034C1.62669 19.2526 1.26254 19.6167 0.813345 19.6167C0.364147 19.6167 0 19.2526 0 18.8034C0 17.3238 0.899545 16.0839 2.14886 15.251Z" fill="#34317D"></path></svg>
