<svg width="20" height="21" viewBox="0 0 20 21" fill="none" xmlns="http://www.w3.org/2000/svg" class=""><path d="M3.80556 20.6699C3.34722 20.6699 2.95486 20.5067 2.62847 20.1803C2.30208 19.8539 2.13889 19.4616 2.13889 19.0033V3.16992H1.83333C1.3731 3.16992 1 2.79683 1 2.33659C1 1.87635 1.3731 1.50326 1.83333 1.50326H6.22222C6.22222 1.04302 6.59532 0.669922 7.05556 0.669922H12.7222C13.1825 0.669922 13.5556 1.04302 13.5556 1.50326H17.9444C18.4047 1.50326 18.7778 1.87635 18.7778 2.33659C18.7778 2.79683 18.4047 3.16992 17.9444 3.16992H17.6389V19.0033C17.6389 19.4477 17.4722 19.8366 17.1389 20.1699C16.8056 20.5033 16.4167 20.6699 15.9722 20.6699H3.80556ZM15.9722 3.16992H3.80556V19.0033H15.9722V3.16992ZM6.75 16.6144H8.41667V5.53103H6.75V16.6144ZM11.3611 16.6144H13.0278V5.53103H11.3611V16.6144Z" fill="currentColor"></path></svg>
