<svg width="20" height="21" viewBox="0 0 20 21" fill="none" xmlns="http://www.w3.org/2000/svg"><path fill-rule="evenodd" clip-rule="evenodd" d="M4.18825 5.15686C5.3304 3.12941 7.50409 1.75781 10 1.75781C13.124 1.75781 15.7455 3.90594 16.4691 6.806C18.4685 7.1121 20 8.83944 20 10.9245C20 13.2257 18.1345 15.0911 15.8333 15.0911L10.8333 15.0912V18.7489C10.8333 19.2092 10.4602 19.5822 10 19.5822C9.53976 19.5822 9.16667 19.2092 9.16667 18.7489V15.0912L5 15.0912C2.23853 15.0912 0 12.8524 0 10.091C0 7.60593 1.8128 5.54507 4.18825 5.15686ZM10.8333 13.4245L15.8333 13.4245C17.214 13.4245 18.3333 12.3052 18.3333 10.9245C18.3333 9.54377 17.214 8.42448 15.8333 8.42448C15.8187 8.42448 15.8042 8.42461 15.7892 8.42487C15.3691 8.43216 15.0093 8.12554 14.9498 7.70959C14.6035 5.28715 12.5184 3.42448 10 3.42448C8.00371 3.42448 6.27928 4.59438 5.47745 6.28978C5.34806 6.56335 5.08053 6.74528 4.77855 6.76505C3.0413 6.87876 1.66667 8.32479 1.66667 10.091C1.66667 11.932 3.1591 13.4245 5 13.4245L9.16667 13.4245V8.64859L8.06224 9.65814C7.72255 9.96866 7.19544 9.94501 6.88492 9.60531C6.5744 9.26561 6.59805 8.7385 6.93775 8.42798L9.43775 6.14273C9.7561 5.85173 10.2439 5.85173 10.5622 6.14273L13.0622 8.42798C13.4019 8.7385 13.4256 9.26561 13.1151 9.60531C12.8046 9.94501 12.2775 9.96866 11.9378 9.65814L10.8333 8.64859V13.4245Z" fill="currentColor"></path></svg>
